<svg width="25" height="24" viewBox="0 0 25 24" fill="none" xmlns="http://www.w3.org/2000/svg">
<g clip-path="url(#clip0_924_1004)">
<path d="M18.3057 5.46C18.0684 5.46 17.8364 5.53038 17.639 5.66224C17.4417 5.79409 17.2879 5.98151 17.197 6.20078C17.1062 6.42005 17.0825 6.66133 17.1288 6.89411C17.1751 7.12689 17.2893 7.34071 17.4572 7.50853C17.625 7.67635 17.8388 7.79064 18.0716 7.83694C18.3044 7.88324 18.5456 7.85948 18.7649 7.76866C18.9842 7.67783 19.1716 7.52402 19.3035 7.32668C19.4353 7.12935 19.5057 6.89734 19.5057 6.66C19.5057 6.34174 19.3793 6.03652 19.1542 5.81147C18.9292 5.58643 18.624 5.46 18.3057 5.46ZM22.9057 7.88C22.8863 7.0503 22.7309 6.2294 22.4457 5.45C22.1914 4.78313 21.7957 4.17928 21.2857 3.68C20.7905 3.16743 20.1853 2.77418 19.5157 2.53C18.7384 2.23616 17.9165 2.07721 17.0857 2.06C16.0257 2 15.6857 2 12.9657 2C10.2457 2 9.9057 2 8.8457 2.06C8.01485 2.07721 7.19304 2.23616 6.4157 2.53C5.74737 2.77665 5.14263 3.16956 4.6457 3.68C4.13312 4.17518 3.73987 4.78044 3.4957 5.45C3.20186 6.22734 3.04291 7.04915 3.0257 7.88C2.9657 8.94 2.9657 9.28 2.9657 12C2.9657 14.72 2.9657 15.06 3.0257 16.12C3.04291 16.9508 3.20186 17.7727 3.4957 18.55C3.73987 19.2196 4.13312 19.8248 4.6457 20.32C5.14263 20.8304 5.74737 21.2234 6.4157 21.47C7.19304 21.7638 8.01485 21.9228 8.8457 21.94C9.9057 22 10.2457 22 12.9657 22C15.6857 22 16.0257 22 17.0857 21.94C17.9165 21.9228 18.7384 21.7638 19.5157 21.47C20.1853 21.2258 20.7905 20.8326 21.2857 20.32C21.7979 19.8226 22.194 19.2182 22.4457 18.55C22.7309 17.7706 22.8863 16.9497 22.9057 16.12C22.9057 15.06 22.9657 14.72 22.9657 12C22.9657 9.28 22.9657 8.94 22.9057 7.88ZM21.1057 16C21.0984 16.6348 20.9835 17.2637 20.7657 17.86C20.606 18.2952 20.3496 18.6884 20.0157 19.01C19.6913 19.3405 19.2989 19.5964 18.8657 19.76C18.2694 19.9778 17.6405 20.0927 17.0057 20.1C16.0057 20.15 15.6357 20.16 13.0057 20.16C10.3757 20.16 10.0057 20.16 9.0057 20.1C8.34659 20.1123 7.69029 20.0109 7.0657 19.8C6.65148 19.6281 6.27705 19.3728 5.9657 19.05C5.63379 18.7287 5.38054 18.3352 5.2257 17.9C4.98155 17.2952 4.84614 16.6519 4.8257 16C4.8257 15 4.7657 14.63 4.7657 12C4.7657 9.37 4.7657 9 4.8257 8C4.83018 7.35106 4.94865 6.70795 5.1757 6.1C5.35175 5.67791 5.62196 5.30166 5.9657 5C6.26951 4.65617 6.64499 4.3831 7.0657 4.2C7.67525 3.98004 8.3177 3.86508 8.9657 3.86C9.9657 3.86 10.3357 3.8 12.9657 3.8C15.5957 3.8 15.9657 3.8 16.9657 3.86C17.6005 3.86728 18.2294 3.98225 18.8257 4.2C19.2801 4.36865 19.688 4.64285 20.0157 5C20.3434 5.30718 20.5995 5.68273 20.7657 6.1C20.988 6.70893 21.103 7.35178 21.1057 8C21.1557 9 21.1657 9.37 21.1657 12C21.1657 14.63 21.1557 15 21.1057 16ZM12.9657 6.87C11.9515 6.87198 10.9607 7.17453 10.1184 7.73942C9.27605 8.30431 8.62008 9.1062 8.23333 10.0438C7.84659 10.9813 7.74642 12.0125 7.94549 13.0069C8.14456 14.0014 8.63393 14.9145 9.35177 15.631C10.0696 16.3474 10.9837 16.835 11.9786 17.0321C12.9734 17.2293 14.0044 17.1271 14.9412 16.7385C15.878 16.35 16.6786 15.6924 17.2418 14.849C17.8051 14.0056 18.1057 13.0142 18.1057 12C18.107 11.3251 17.9749 10.6566 17.7169 10.033C17.459 9.40931 17.0803 8.84281 16.6026 8.36605C16.1249 7.88929 15.5576 7.51168 14.9335 7.25493C14.3093 6.99818 13.6406 6.86736 12.9657 6.87ZM12.9657 15.33C12.3071 15.33 11.6633 15.1347 11.1156 14.7688C10.568 14.4029 10.1412 13.8828 9.88918 13.2743C9.63714 12.6659 9.57119 11.9963 9.69968 11.3503C9.82817 10.7044 10.1453 10.111 10.611 9.64533C11.0767 9.17963 11.6701 8.86247 12.316 8.73398C12.962 8.6055 13.6316 8.67144 14.24 8.92348C14.8485 9.17552 15.3686 9.60234 15.7345 10.15C16.1004 10.6976 16.2957 11.3414 16.2957 12C16.2957 12.4373 16.2096 12.8703 16.0422 13.2743C15.8749 13.6784 15.6296 14.0454 15.3204 14.3547C15.0111 14.6639 14.644 14.9092 14.24 15.0765C13.836 15.2439 13.403 15.33 12.9657 15.33Z" fill="#676050"/>
</g>
<defs>
<clipPath id="clip0_924_1004">
<rect width="24" height="24" fill="white" transform="translate(0.965698)"/>
</clipPath>
</defs>
</svg>
