<svg width="26" height="24" viewBox="0 0 26 24" fill="none" xmlns="http://www.w3.org/2000/svg">
<g clip-path="url(#clip0_924_1007)">
<path d="M2.9657 4.32323C2.9657 3.64982 3.2014 3.09426 3.67277 2.65657C4.14414 2.21885 4.75695 2 5.51115 2C6.2519 2 6.85121 2.21547 7.30913 2.64646C7.78051 3.09091 8.0162 3.67002 8.0162 4.38384C8.0162 5.0303 7.78725 5.56901 7.32933 6C6.85796 6.44444 6.23843 6.66667 5.47075 6.66667H5.45055C4.7098 6.66667 4.11049 6.44444 3.65257 6C3.19465 5.55556 2.9657 4.99663 2.9657 4.32323ZM3.22832 22V8.50505H7.71317V22H3.22832ZM10.198 22H14.6829V14.4646C14.6829 13.9933 14.7367 13.6296 14.8445 13.3737C15.033 12.9158 15.3192 12.5286 15.7031 12.2121C16.0869 11.8956 16.5684 11.7374 17.1475 11.7374C18.6559 11.7374 19.4101 12.7542 19.4101 14.7879V22H23.895V14.2626C23.895 12.2694 23.4236 10.7576 22.4809 9.72727C21.5381 8.69697 20.2923 8.18182 18.7435 8.18182C17.0061 8.18182 15.6526 8.92929 14.6829 10.4242V10.4646H14.6627L14.6829 10.4242V8.50505H10.198C10.225 8.93602 10.2384 10.2761 10.2384 12.5253C10.2384 14.7744 10.225 17.9326 10.198 22Z" fill="#676050"/>
</g>
<defs>
<clipPath id="clip0_924_1007">
<rect width="24.0686" height="23" fill="white" transform="translate(0.965698 0.5)"/>
</clipPath>
</defs>
</svg>
