<svg width="25" height="24" viewBox="0 0 25 24" fill="none" xmlns="http://www.w3.org/2000/svg">
<g clip-path="url(#clip0_924_1010)">
<path d="M11.0343 22V13.725C10.7343 13.5417 10.4926 13.3042 10.3093 13.0125C10.126 12.7208 10.0343 12.3833 10.0343 12C10.0343 11.45 10.2301 10.9792 10.6218 10.5875C11.0135 10.1958 11.4843 10 12.0343 10C12.5843 10 13.0551 10.1958 13.4468 10.5875C13.8385 10.9792 14.0343 11.45 14.0343 12C14.0343 12.3833 13.9426 12.725 13.7593 13.025C13.576 13.325 13.3343 13.5583 13.0343 13.725V22H11.0343ZM5.1343 19.25C4.1843 18.3333 3.43014 17.2542 2.8718 16.0125C2.31347 14.7708 2.0343 13.4333 2.0343 12C2.0343 10.6167 2.2968 9.31667 2.8218 8.1C3.3468 6.88333 4.0593 5.825 4.9593 4.925C5.8593 4.025 6.91763 3.3125 8.1343 2.7875C9.35097 2.2625 10.651 2 12.0343 2C13.4176 2 14.7176 2.2625 15.9343 2.7875C17.151 3.3125 18.2093 4.025 19.1093 4.925C20.0093 5.825 20.7218 6.88333 21.2468 8.1C21.7718 9.31667 22.0343 10.6167 22.0343 12C22.0343 13.4333 21.7551 14.775 21.1968 16.025C20.6385 17.275 19.8843 18.35 18.9343 19.25L17.5343 17.85C18.301 17.1167 18.9093 16.2458 19.3593 15.2375C19.8093 14.2292 20.0343 13.15 20.0343 12C20.0343 9.76667 19.2593 7.875 17.7093 6.325C16.1593 4.775 14.2676 4 12.0343 4C9.80097 4 7.9093 4.775 6.3593 6.325C4.8093 7.875 4.0343 9.76667 4.0343 12C4.0343 13.15 4.2593 14.225 4.7093 15.225C5.1593 16.225 5.77597 17.0917 6.5593 17.825L5.1343 19.25ZM7.9593 16.425C7.37597 15.875 6.9093 15.2208 6.5593 14.4625C6.2093 13.7042 6.0343 12.8833 6.0343 12C6.0343 10.3333 6.61764 8.91667 7.7843 7.75C8.95097 6.58333 10.3676 6 12.0343 6C13.701 6 15.1176 6.58333 16.2843 7.75C17.451 8.91667 18.0343 10.3333 18.0343 12C18.0343 12.8833 17.8593 13.7083 17.5093 14.475C17.1593 15.2417 16.6926 15.8917 16.1093 16.425L14.6843 15C15.101 14.6167 15.4301 14.1667 15.6718 13.65C15.9135 13.1333 16.0343 12.5833 16.0343 12C16.0343 10.9 15.6426 9.95833 14.8593 9.175C14.076 8.39167 13.1343 8 12.0343 8C10.9343 8 9.99264 8.39167 9.2093 9.175C8.42597 9.95833 8.0343 10.9 8.0343 12C8.0343 12.6 8.15514 13.1542 8.3968 13.6625C8.63847 14.1708 8.96764 14.6167 9.3843 15L7.9593 16.425Z" fill="#676050"/>
</g>
<defs>
<clipPath id="clip0_924_1010">
<rect width="24" height="24" fill="white" transform="translate(0.0343018)"/>
</clipPath>
</defs>
</svg>
